<svg width="749.845654296875px" height="155.60001831054686px" xmlns="http://www.w3.org/2000/svg" viewBox="-124.92282714843748 -2.800009155273429 749.845654296875 155.60001831054686" style="background:#f2eddb" preserveAspectRatio="xMidYMid"><defs><filter id="editing-vintage" x="-100%" y="-100%" width="300%" height="300%"><feConvolveMatrix in="SourceGraphic" result="extrude" order="10,10" divisor="1" kernelMatrix="1,0,0,0,0,0,0,0,0,0,0,1,0,0,0,0,0,0,0,0,0,0,1,0,0,0,0,0,0,0,0,0,0,1,0,0,0,0,0,0,0,0,0,0,1,0,0,0,0,0,0,0,0,0,0,1,0,0,0,0,0,0,0,0,0,0,1,0,0,0,0,0,0,0,0,0,0,1,0,0,0,0,0,0,0,0,0,0,1,0,0,0,0,0,0,0,0,0,0,1"> </feConvolveMatrix><feFlood flood-color="#900" result="flood-extrude"></feFlood><feComposite operator="in" in="flood-extrude" in2="extrude" result="extrude-color"></feComposite><feOffset dx="5" dy="5" in="extrude-color" result="extrude-offset"></feOffset><feColorMatrix in="SourceGraphic" result="stroke" type="matrix" values="0 0 0 0 0 0 0 0 0 0 0 0 0 0 0 0 1 0 0 0 "></feColorMatrix><feColorMatrix in="SourceGraphic" result="fill" type="matrix" values="0 0 0 0 0 0 0 0 0 0 0 0 0 0 0 1 0 0 1 0 "></feColorMatrix><feConvolveMatrix in="stroke" result="inner-shadow" order="5,5" divisor="1" kernelMatrix="1 0 0 0 0 0 1 0 0 0 0 0 1 0 0 0 0 0 1 0 0 0 0 0 1 "></feConvolveMatrix><feOffset dx="1" dy="1" in="inner-shadow" result="offset"></feOffset><feComposite operator="in" in="offset" in2="SourceAlpha" result="comp"></feComposite><feFlood flood-color="#000" result="flood3"></feFlood><feComposite operator="in" in="flood3" in2="comp" result="comp2"></feComposite><feColorMatrix in="comp2" result="comp3" type="matrix" values="1 0 0 0 0 0 1 0 0 0 0 0 1 0 0 0 0 0 0.5 0 "></feColorMatrix><feFlood flood-color="#f00" result="flood1"></feFlood><feComposite operator="in" in="flood1" in2="fill" result="fill2"></feComposite><feFlood flood-color="#fff" result="flood2"></feFlood><feComposite operator="in" in="flood2" in2="stroke" result="stroke2"></feComposite><feMerge result="obj"><feMergeNode in="extrude-offset"></feMergeNode><feMergeNode in="fill2"></feMergeNode><feMergeNode in="comp3"></feMergeNode></feMerge><feConvolveMatrix in="SourceAlpha" result="shadow" order="10,10" divisor="1" kernelMatrix="1,0,0,0,0,0,0,0,0,0,0,1,0,0,0,0,0,0,0,0,0,0,1,0,0,0,0,0,0,0,0,0,0,1,0,0,0,0,0,0,0,0,0,0,1,0,0,0,0,0,0,0,0,0,0,1,0,0,0,0,0,0,0,0,0,0,1,0,0,0,0,0,0,0,0,0,0,1,0,0,0,0,0,0,0,0,0,0,1,0,0,0,0,0,0,0,0,0,0,1"></feConvolveMatrix><feOffset dx="15" dy="15" in="shadow" result="shadow-offset"></feOffset><feFlood flood-color="#444" result="flood-shadow"></feFlood><feComposite operator="in" in="flood-shadow" in2="shadow-offset" result="shadow-color"></feComposite><feMerge><feMergeNode in="shadow-color"></feMergeNode><feMergeNode in="obj"></feMergeNode></feMerge></filter></defs><g transform="translate(-10,-10)"><g filter="url(#editing-vintage)"><g transform="translate(-18.60031270980835, 105.19000244140625)"><path d="M19.26 0L0.52 0L11.44-56.76L30.36-56.76L19.26 0ZM85.91-13.24L85.91-13.24L85.91-13.24Q87.55-11.18 87.55-7.18L87.55-7.18L87.55-7.18Q87.55-3.18 84.50-0.73L84.50-0.73L84.50-0.73Q81.44 1.72 76.11 1.72L76.11 1.72L76.11 1.72Q73.01 1.72 68.20 1.03L68.20 1.03L68.20 1.03Q58.74-0.43 56.03-0.43L56.03-0.43L56.03-0.43Q53.32-0.43 52.20-0.30L52.20-0.30L52.20-0.30Q51.08-0.17 49.28 0L49.28 0L59.68-56.76L78.52-56.76L69.92-9.46L69.92-9.46Q71.04-9.29 72.07-9.29L72.07-9.29L74.22-9.29L74.22-9.29Q81.44-9.29 85.91-13.24ZM93.74-20.98L93.74-20.98L93.74-20.98Q93.74-37.24 102.17-47.47L102.17-47.47L102.17-47.47Q111.11-58.57 126.68-58.57L126.68-58.57L126.68-58.57Q137.94-58.57 143.62-53.11L143.62-53.11L143.62-53.11Q149.30-47.64 149.30-36.12L149.30-36.12L149.30-36.12Q149.30-18.58 140.35-8.34L140.35-8.34L140.35-8.34Q131.49 1.72 116.62 1.72L116.62 1.72L116.62 1.72Q105.01 1.72 99.37-4.08L99.37-4.08L99.37-4.08Q93.74-9.89 93.74-20.98ZM116.36-38.79L116.36-38.79L116.36-38.79Q112.49-23.31 112.49-11.09L112.49-11.09L112.49-11.09Q112.49-8.17 113.48-6.28L113.48-6.28L113.48-6.28Q114.47-4.39 117.09-4.39L117.09-4.39L117.09-4.39Q119.71-4.39 121.35-5.63L121.35-5.63L121.35-5.63Q122.98-6.88 124.27-9.72L124.27-9.72L124.27-9.72Q126.33-14.36 128.27-24.21L128.27-24.21L128.27-24.21Q130.20-34.06 130.38-38.14L130.38-38.14L130.38-38.14Q130.55-42.23 130.55-45.32L130.55-45.32L130.55-45.32Q130.55-48.42 129.60-50.40L129.60-50.40L129.60-50.40Q128.66-52.37 126.12-52.37L126.12-52.37L126.12-52.37Q123.58-52.37 121.86-50.83L121.86-50.83L121.86-50.83Q118.68-47.90 116.36-38.79ZM155.66-53.32L155.66-53.32L155.66-53.32Q158.15-58.48 165.08-58.48L165.08-58.48L165.08-58.48Q172-58.48 175.22-54.48L175.22-54.48L175.22-54.48Q178.45-50.48 178.45-41.28L178.45-41.28L178.45-10.58L199.35-56.67L209.58-56.67L182.84 0L162.71 0L160.13-41.28L160.13-41.28Q159.87-45.84 158.63-48.93L158.63-48.93L158.63-48.93Q157.38-52.03 155.66-53.32ZM242.86-13.24L242.86-13.24L242.86-13.24Q244.50-11.18 244.50-7.83L244.50-7.83L244.50-7.83Q244.50-3.18 241.06-0.73L241.06-0.73L241.06-0.73Q237.62 1.72 232.20 1.72L232.20 1.72L232.20 1.72Q229.10 1.72 224.37 1.03L224.37 1.03L224.37 1.03Q215.09-0.43 212.25-0.43L212.25-0.43L212.25-0.43Q209.41-0.43 208.29-0.30L208.29-0.30L208.29-0.30Q207.17-0.17 205.37 0L205.37 0L215.95-56.76L253.01-56.76L253.01-56.76Q253.01-51.51 250.48-48.76L250.48-48.76L250.48-48.76Q247.94-46.01 242.95-46.01L242.95-46.01L242.95-46.01Q237.96-46.01 232.89-48.33L232.89-48.33L230.22-33.28L245.53-33.28L245.53-33.28Q245.53-28.72 243.29-26.19L243.29-26.19L243.29-26.19Q241.06-23.65 237.32-23.65L237.32-23.65L237.32-23.65Q233.58-23.65 231.25-24.51L231.25-24.51L231.25-24.51Q228.93-25.37 228.67-25.63L228.67-25.63L225.58-9.37L225.58-9.37Q227.64-9.12 231.51-9.12L231.51-9.12L231.51-9.12Q238.13-9.12 242.86-13.24ZM278.30 0L283.28-25.28L283.28-25.28Q280.79-48.59 272.02-53.58L272.02-53.58L272.02-53.58Q273.82-55.81 276.75-57.06L276.75-57.06L276.75-57.06Q279.67-58.31 283.20-58.31L283.20-58.31L283.20-58.31Q286.72-58.31 289.39-57.06L289.39-57.06L289.39-57.06Q292.06-55.81 293.78-53.15L293.78-53.15L293.78-53.15Q297.04-48.07 297.04-35.95L297.04-35.95L297.04-29.76L297.04-29.76Q302.20-44.89 307.36-51.43L307.36-51.43L307.36-51.43Q312.61-58.14 319.15-58.14L319.15-58.14L319.15-58.14Q321.73-58.14 323.45-56.80L323.45-56.80L323.45-56.80Q325.17-55.47 326.03-53.49L326.03-53.49L326.03-53.49Q319.40-50.57 313.04-42.14L313.04-42.14L313.04-42.14Q306.68-33.71 302.55-21.93L302.55-21.93L297.47 0L278.30 0ZM321.30-20.98L321.30-20.98L321.30-20.98Q321.30-37.24 329.72-47.47L329.72-47.47L329.72-47.47Q338.67-58.57 354.23-58.57L354.23-58.57L354.23-58.57Q365.50-58.57 371.18-53.11L371.18-53.11L371.18-53.11Q376.85-47.64 376.85-36.12L376.85-36.12L376.85-36.12Q376.85-18.58 367.91-8.34L367.91-8.34L367.91-8.34Q359.05 1.72 344.17 1.72L344.17 1.72L344.17 1.72Q332.56 1.72 326.93-4.08L326.93-4.08L326.93-4.08Q321.30-9.89 321.30-20.98ZM343.91-38.79L343.91-38.79L343.91-38.79Q340.04-23.31 340.04-11.09L340.04-11.09L340.04-11.09Q340.04-8.17 341.03-6.28L341.03-6.28L341.03-6.28Q342.02-4.39 344.65-4.39L344.65-4.39L344.65-4.39Q347.27-4.39 348.90-5.63L348.90-5.63L348.90-5.63Q350.54-6.88 351.83-9.72L351.83-9.72L351.83-9.72Q353.89-14.36 355.83-24.21L355.83-24.21L355.83-24.21Q357.76-34.06 357.93-38.14L357.93-38.14L357.93-38.14Q358.10-42.23 358.10-45.32L358.10-45.32L358.10-45.32Q358.10-48.42 357.16-50.40L357.16-50.40L357.16-50.40Q356.21-52.37 353.68-52.37L353.68-52.37L353.68-52.37Q351.14-52.37 349.42-50.83L349.42-50.83L349.42-50.83Q346.24-47.90 343.91-38.79ZM382.70-12.73L382.70-12.73L382.70-12.73Q382.70-16.08 383.56-20.38L383.56-20.38L390.53-56.76L409.53-56.76L402.65-20.12L402.65-20.12Q401.88-16.08 401.88-13.12L401.88-13.12L401.88-13.12Q401.88-10.15 403.13-8.60L403.13-8.60L403.13-8.60Q404.37-7.05 406.69-7.05L406.69-7.05L406.69-7.05Q409.02-7.05 410.48-7.65L410.48-7.65L410.48-7.65Q411.94-8.26 413.14-9.72L413.14-9.72L413.14-9.72Q415.47-12.64 416.93-20.12L416.93-20.12L423.89-56.76L436.88-56.76L430.00-20.21L430.00-20.21Q427.59-8.00 420.97-3.10L420.97-3.10L420.97-3.10Q414.52 1.72 401.79 1.72L401.79 1.72L401.79 1.72Q392.25 1.72 387.17-2.41L387.17-2.41L387.17-2.41Q382.70-6.02 382.70-12.73ZM436.28-5.07L436.28-5.07L436.28-5.07Q436.28-8.34 438.73-10.11L438.73-10.11L438.73-10.11Q441.18-11.87 444.79-11.87L444.79-11.87L444.79-11.87Q448.40-11.87 450.68-10.11L450.68-10.11L450.68-10.11Q452.96-8.34 452.96-5.07L452.96-5.07L452.96-5.07Q452.96-1.81 450.43 0L450.43 0L450.43 0Q447.89 1.81 444.28 1.81L444.28 1.81L444.28 1.81Q440.66 1.81 438.47 0L438.47 0L438.47 0Q436.28-1.81 436.28-5.07ZM440.92-21.24L440.92-21.24L440.92-21.24Q440.92-21.84 441.09-22.70L441.09-22.70L447.80-57.28L447.80-57.28Q450.98-58.48 454.77-58.48L454.77-58.48L454.77-58.48Q458.55-58.48 460.53-56.07L460.53-56.07L460.53-56.07Q462.51-53.66 462.51-50.10L462.51-50.10L462.51-50.10Q462.51-46.53 461.13-42.53L461.13-42.53L461.13-42.53Q459.76-38.53 458.08-34.49L458.08-34.49L458.08-34.49Q456.40-30.44 454.98-26.27L454.98-26.27L454.98-26.27Q453.56-22.10 453.48-17.72L453.48-17.72L453.48-17.72Q451.50-15.48 448.06-15.48L448.06-15.48L448.06-15.48Q444.62-15.48 442.77-17.07L442.77-17.07L442.77-17.07Q440.92-18.66 440.92-21.24ZM461.22-5.07L461.22-5.07L461.22-5.07Q461.22-8.34 463.67-10.11L463.67-10.11L463.67-10.11Q466.12-11.87 469.73-11.87L469.73-11.87L469.73-11.87Q473.34-11.87 475.62-10.11L475.62-10.11L475.62-10.11Q477.90-8.34 477.90-5.07L477.90-5.07L477.90-5.07Q477.90-1.81 475.37 0L475.37 0L475.37 0Q472.83 1.81 469.22 1.81L469.22 1.81L469.22 1.81Q465.60 1.81 463.41 0L463.41 0L463.41 0Q461.22-1.81 461.22-5.07ZM465.86-21.24L465.86-21.24L465.86-21.24Q465.86-21.84 466.03-22.70L466.03-22.70L472.74-57.28L472.74-57.28Q475.92-58.48 479.71-58.48L479.71-58.48L479.71-58.48Q483.49-58.48 485.47-56.07L485.47-56.07L485.47-56.07Q487.45-53.66 487.45-50.10L487.45-50.10L487.45-50.10Q487.45-46.53 486.07-42.53L486.07-42.53L486.07-42.53Q484.70-38.53 483.02-34.49L483.02-34.49L483.02-34.49Q481.34-30.44 479.92-26.27L479.92-26.27L479.92-26.27Q478.50-22.10 478.42-17.72L478.42-17.72L478.42-17.72Q476.44-15.48 473.00-15.48L473.00-15.48L473.00-15.48Q469.56-15.48 467.71-17.07L467.71-17.07L467.71-17.07Q465.86-18.66 465.86-21.24ZM486.16-5.07L486.16-5.07L486.16-5.07Q486.16-8.34 488.61-10.11L488.61-10.11L488.61-10.11Q491.06-11.87 494.67-11.87L494.67-11.87L494.67-11.87Q498.28-11.87 500.56-10.11L500.56-10.11L500.56-10.11Q502.84-8.34 502.84-5.07L502.84-5.07L502.84-5.07Q502.84-1.81 500.31 0L500.31 0L500.31 0Q497.77 1.81 494.16 1.81L494.16 1.81L494.16 1.81Q490.54 1.81 488.35 0L488.35 0L488.35 0Q486.16-1.81 486.16-5.07ZM490.80-21.24L490.80-21.24L490.80-21.24Q490.80-21.84 490.97-22.70L490.97-22.70L497.68-57.28L497.68-57.28Q500.86-58.48 504.65-58.48L504.65-58.48L504.65-58.48Q508.43-58.48 510.41-56.07L510.41-56.07L510.41-56.07Q512.39-53.66 512.39-50.10L512.39-50.10L512.39-50.10Q512.39-46.53 511.01-42.53L511.01-42.53L511.01-42.53Q509.64-38.53 507.96-34.49L507.96-34.49L507.96-34.49Q506.28-30.44 504.86-26.27L504.86-26.27L504.86-26.27Q503.44-22.10 503.36-17.72L503.36-17.72L503.36-17.72Q501.38-15.48 497.94-15.48L497.94-15.48L497.94-15.48Q494.50-15.48 492.65-17.07L492.65-17.07L492.65-17.07Q490.80-18.66 490.80-21.24ZM511.10-5.07L511.10-5.07L511.10-5.07Q511.10-8.34 513.55-10.11L513.55-10.11L513.55-10.11Q516-11.87 519.61-11.87L519.61-11.87L519.61-11.87Q523.22-11.87 525.50-10.11L525.50-10.11L525.50-10.11Q527.78-8.34 527.78-5.07L527.78-5.07L527.78-5.07Q527.78-1.81 525.25 0L525.25 0L525.25 0Q522.71 1.81 519.10 1.81L519.10 1.81L519.10 1.81Q515.48 1.81 513.29 0L513.29 0L513.29 0Q511.10-1.81 511.10-5.07ZM515.74-21.24L515.74-21.24L515.74-21.24Q515.74-21.84 515.91-22.70L515.91-22.70L522.62-57.28L522.62-57.28Q525.80-58.48 529.59-58.48L529.59-58.48L529.59-58.48Q533.37-58.48 535.35-56.07L535.35-56.07L535.35-56.07Q537.33-53.66 537.33-50.10L537.33-50.10L537.33-50.10Q537.33-46.53 535.95-42.53L535.95-42.53L535.95-42.53Q534.58-38.53 532.90-34.49L532.90-34.49L532.90-34.49Q531.22-30.44 529.80-26.27L529.80-26.27L529.80-26.27Q528.38-22.10 528.30-17.72L528.30-17.72L528.30-17.72Q526.32-15.48 522.88-15.48L522.88-15.48L522.88-15.48Q519.44-15.48 517.59-17.07L517.59-17.07L517.59-17.07Q515.74-18.66 515.74-21.24Z" fill="#f00" stroke="#0f0" stroke-width="1.8"></path></g></g><g><g transform="translate(-18.397922039031982, 105.19000053405762)"><path d="M19.26 0L0.52 0L11.44-56.76L30.36-56.76L19.26 0ZM85.91-13.24L85.91-13.24L85.91-13.24Q87.55-11.18 87.55-7.18L87.55-7.18L87.55-7.18Q87.55-3.18 84.50-0.73L84.50-0.73L84.50-0.73Q81.44 1.72 76.11 1.72L76.11 1.72L76.11 1.72Q73.01 1.72 68.20 1.03L68.20 1.03L68.20 1.03Q58.74-0.43 56.03-0.43L56.03-0.43L56.03-0.43Q53.32-0.43 52.20-0.30L52.20-0.30L52.20-0.30Q51.08-0.17 49.28 0L49.28 0L59.68-56.76L78.52-56.76L69.92-9.46L69.92-9.46Q71.04-9.29 72.07-9.29L72.07-9.29L74.22-9.29L74.22-9.29Q81.44-9.29 85.91-13.24ZM93.74-20.98L93.74-20.98L93.74-20.98Q93.74-37.24 102.17-47.47L102.17-47.47L102.17-47.47Q111.11-58.57 126.68-58.57L126.68-58.57L126.68-58.57Q137.94-58.57 143.62-53.11L143.62-53.11L143.62-53.11Q149.30-47.64 149.30-36.12L149.30-36.12L149.30-36.12Q149.30-18.58 140.35-8.34L140.35-8.34L140.35-8.34Q131.49 1.72 116.62 1.72L116.62 1.72L116.62 1.72Q105.01 1.72 99.37-4.08L99.37-4.08L99.37-4.08Q93.74-9.89 93.74-20.98ZM116.36-38.79L116.36-38.79L116.36-38.79Q112.49-23.31 112.49-11.09L112.49-11.09L112.49-11.09Q112.49-8.17 113.48-6.28L113.48-6.28L113.48-6.28Q114.47-4.39 117.09-4.39L117.09-4.39L117.09-4.39Q119.71-4.39 121.35-5.63L121.35-5.63L121.35-5.63Q122.98-6.88 124.27-9.72L124.27-9.72L124.27-9.72Q126.33-14.36 128.27-24.21L128.27-24.21L128.27-24.21Q130.20-34.06 130.38-38.14L130.38-38.14L130.38-38.14Q130.55-42.23 130.55-45.32L130.55-45.32L130.55-45.32Q130.55-48.42 129.60-50.40L129.60-50.40L129.60-50.40Q128.66-52.37 126.12-52.37L126.12-52.37L126.12-52.37Q123.58-52.37 121.86-50.83L121.86-50.83L121.86-50.83Q118.68-47.90 116.36-38.79ZM155.66-53.32L155.66-53.32L155.66-53.32Q158.15-58.48 165.08-58.48L165.08-58.48L165.08-58.48Q172-58.48 175.22-54.48L175.22-54.48L175.22-54.48Q178.45-50.48 178.45-41.28L178.45-41.28L178.45-10.58L199.35-56.67L209.58-56.67L182.84 0L162.71 0L160.13-41.28L160.13-41.28Q159.87-45.84 158.63-48.93L158.63-48.93L158.63-48.93Q157.38-52.03 155.66-53.32ZM242.86-13.24L242.86-13.24L242.86-13.24Q244.50-11.18 244.50-7.83L244.50-7.83L244.50-7.83Q244.50-3.18 241.06-0.73L241.06-0.73L241.06-0.73Q237.62 1.72 232.20 1.72L232.20 1.72L232.20 1.72Q229.10 1.72 224.37 1.03L224.37 1.03L224.37 1.03Q215.09-0.43 212.25-0.43L212.25-0.43L212.25-0.43Q209.41-0.43 208.29-0.30L208.29-0.30L208.29-0.30Q207.17-0.17 205.37 0L205.37 0L215.95-56.76L253.01-56.76L253.01-56.76Q253.01-51.51 250.48-48.76L250.48-48.76L250.48-48.76Q247.94-46.01 242.95-46.01L242.95-46.01L242.95-46.01Q237.96-46.01 232.89-48.33L232.89-48.33L230.22-33.28L245.53-33.28L245.53-33.28Q245.53-28.72 243.29-26.19L243.29-26.19L243.29-26.19Q241.06-23.65 237.32-23.65L237.32-23.65L237.32-23.65Q233.58-23.65 231.25-24.51L231.25-24.51L231.25-24.51Q228.93-25.37 228.67-25.63L228.67-25.63L225.58-9.37L225.58-9.37Q227.64-9.12 231.51-9.12L231.51-9.12L231.51-9.12Q238.13-9.12 242.86-13.24ZM278.30 0L283.28-25.28L283.28-25.28Q280.79-48.59 272.02-53.58L272.02-53.58L272.02-53.58Q273.82-55.81 276.75-57.06L276.75-57.06L276.75-57.06Q279.67-58.31 283.20-58.31L283.20-58.31L283.20-58.31Q286.72-58.31 289.39-57.06L289.39-57.06L289.39-57.06Q292.06-55.81 293.78-53.15L293.78-53.15L293.78-53.15Q297.04-48.07 297.04-35.95L297.04-35.95L297.04-29.76L297.04-29.76Q302.20-44.89 307.36-51.43L307.36-51.43L307.36-51.43Q312.61-58.14 319.15-58.14L319.15-58.14L319.15-58.14Q321.73-58.14 323.45-56.80L323.45-56.80L323.45-56.80Q325.17-55.47 326.03-53.49L326.03-53.49L326.03-53.49Q319.40-50.57 313.04-42.14L313.04-42.14L313.04-42.14Q306.68-33.71 302.55-21.93L302.55-21.93L297.47 0L278.30 0ZM321.30-20.98L321.30-20.98L321.30-20.98Q321.30-37.24 329.72-47.47L329.72-47.47L329.72-47.47Q338.67-58.57 354.23-58.57L354.23-58.57L354.23-58.57Q365.50-58.57 371.18-53.11L371.18-53.11L371.18-53.11Q376.85-47.64 376.85-36.12L376.85-36.12L376.85-36.12Q376.85-18.58 367.91-8.34L367.91-8.34L367.91-8.34Q359.05 1.72 344.17 1.72L344.17 1.72L344.17 1.72Q332.56 1.72 326.93-4.08L326.93-4.08L326.93-4.08Q321.30-9.89 321.30-20.98ZM343.91-38.79L343.91-38.79L343.91-38.79Q340.04-23.31 340.04-11.09L340.04-11.09L340.04-11.09Q340.04-8.17 341.03-6.28L341.03-6.28L341.03-6.28Q342.02-4.39 344.65-4.39L344.65-4.39L344.65-4.39Q347.27-4.39 348.90-5.63L348.90-5.63L348.90-5.63Q350.54-6.88 351.83-9.72L351.83-9.72L351.83-9.72Q353.89-14.36 355.83-24.21L355.83-24.21L355.83-24.21Q357.76-34.06 357.93-38.14L357.93-38.14L357.93-38.14Q358.10-42.23 358.10-45.32L358.10-45.32L358.10-45.32Q358.10-48.42 357.16-50.40L357.16-50.40L357.16-50.40Q356.21-52.37 353.68-52.37L353.68-52.37L353.68-52.37Q351.14-52.37 349.42-50.83L349.42-50.83L349.42-50.83Q346.24-47.90 343.91-38.79ZM382.70-12.73L382.70-12.73L382.70-12.73Q382.70-16.08 383.56-20.38L383.56-20.38L390.53-56.76L409.53-56.76L402.65-20.12L402.65-20.12Q401.88-16.08 401.88-13.12L401.88-13.12L401.88-13.12Q401.88-10.15 403.13-8.60L403.13-8.60L403.13-8.60Q404.37-7.05 406.69-7.05L406.69-7.05L406.69-7.05Q409.02-7.05 410.48-7.65L410.48-7.65L410.48-7.65Q411.94-8.26 413.14-9.72L413.14-9.72L413.14-9.72Q415.47-12.64 416.93-20.12L416.93-20.12L423.89-56.76L436.88-56.76L430.00-20.21L430.00-20.21Q427.59-8.00 420.97-3.10L420.97-3.10L420.97-3.10Q414.52 1.72 401.79 1.72L401.79 1.72L401.79 1.72Q392.25 1.72 387.17-2.41L387.17-2.41L387.17-2.41Q382.70-6.02 382.70-12.73ZM436.28-5.07L436.28-5.07L436.28-5.07Q436.28-8.34 438.73-10.11L438.73-10.11L438.73-10.11Q441.18-11.87 444.79-11.87L444.79-11.87L444.79-11.87Q448.40-11.87 450.68-10.11L450.68-10.11L450.68-10.11Q452.96-8.34 452.96-5.07L452.96-5.07L452.96-5.07Q452.96-1.81 450.43 0L450.43 0L450.43 0Q447.89 1.81 444.28 1.81L444.28 1.81L444.28 1.81Q440.66 1.81 438.47 0L438.47 0L438.47 0Q436.28-1.81 436.28-5.07ZM440.92-21.24L440.92-21.24L440.92-21.24Q440.92-21.84 441.09-22.70L441.09-22.70L447.80-57.28L447.80-57.28Q450.98-58.48 454.77-58.48L454.77-58.48L454.77-58.48Q458.55-58.48 460.53-56.07L460.53-56.07L460.53-56.07Q462.51-53.66 462.51-50.10L462.51-50.10L462.51-50.10Q462.51-46.53 461.13-42.53L461.13-42.53L461.13-42.53Q459.76-38.53 458.08-34.49L458.08-34.49L458.08-34.49Q456.40-30.44 454.98-26.27L454.98-26.27L454.98-26.27Q453.56-22.10 453.48-17.72L453.48-17.72L453.48-17.72Q451.50-15.48 448.06-15.48L448.06-15.48L448.06-15.48Q444.62-15.48 442.77-17.07L442.77-17.07L442.77-17.07Q440.92-18.66 440.92-21.24ZM461.22-5.07L461.22-5.07L461.22-5.07Q461.22-8.34 463.67-10.11L463.67-10.11L463.67-10.11Q466.12-11.87 469.73-11.87L469.73-11.87L469.73-11.87Q473.34-11.87 475.62-10.11L475.62-10.11L475.62-10.11Q477.90-8.34 477.90-5.07L477.90-5.07L477.90-5.07Q477.90-1.81 475.37 0L475.37 0L475.37 0Q472.83 1.81 469.22 1.81L469.22 1.81L469.22 1.81Q465.60 1.81 463.41 0L463.41 0L463.41 0Q461.22-1.81 461.22-5.07ZM465.86-21.24L465.86-21.24L465.86-21.24Q465.86-21.84 466.03-22.70L466.03-22.70L472.74-57.28L472.74-57.28Q475.92-58.48 479.71-58.48L479.71-58.48L479.71-58.48Q483.49-58.48 485.47-56.07L485.47-56.07L485.47-56.07Q487.45-53.66 487.45-50.10L487.45-50.10L487.45-50.10Q487.45-46.53 486.07-42.53L486.07-42.53L486.07-42.53Q484.70-38.53 483.02-34.49L483.02-34.49L483.02-34.49Q481.34-30.44 479.92-26.27L479.92-26.27L479.92-26.27Q478.50-22.10 478.42-17.72L478.42-17.72L478.42-17.72Q476.44-15.48 473.00-15.48L473.00-15.48L473.00-15.48Q469.56-15.48 467.71-17.07L467.71-17.07L467.71-17.07Q465.86-18.66 465.86-21.24ZM486.16-5.07L486.16-5.07L486.16-5.07Q486.16-8.34 488.61-10.11L488.61-10.11L488.61-10.11Q491.06-11.87 494.67-11.87L494.67-11.87L494.67-11.87Q498.28-11.87 500.56-10.11L500.56-10.11L500.56-10.11Q502.84-8.34 502.84-5.07L502.84-5.07L502.84-5.07Q502.84-1.81 500.31 0L500.31 0L500.31 0Q497.77 1.81 494.16 1.81L494.16 1.81L494.16 1.81Q490.54 1.81 488.35 0L488.35 0L488.35 0Q486.16-1.81 486.16-5.07ZM490.80-21.24L490.80-21.24L490.80-21.24Q490.80-21.84 490.97-22.70L490.97-22.70L497.68-57.28L497.68-57.28Q500.86-58.48 504.65-58.48L504.65-58.48L504.65-58.48Q508.43-58.48 510.41-56.07L510.41-56.07L510.41-56.07Q512.39-53.66 512.39-50.10L512.39-50.10L512.39-50.10Q512.39-46.53 511.01-42.53L511.01-42.53L511.01-42.53Q509.64-38.53 507.96-34.49L507.96-34.49L507.96-34.49Q506.28-30.44 504.86-26.27L504.86-26.27L504.86-26.27Q503.44-22.10 503.36-17.72L503.36-17.72L503.36-17.72Q501.38-15.48 497.94-15.48L497.94-15.48L497.94-15.48Q494.50-15.48 492.65-17.07L492.65-17.07L492.65-17.07Q490.80-18.66 490.80-21.24ZM511.10-5.07L511.10-5.07L511.10-5.07Q511.10-8.34 513.55-10.11L513.55-10.11L513.55-10.11Q516-11.87 519.61-11.87L519.61-11.87L519.61-11.87Q523.22-11.87 525.50-10.11L525.50-10.11L525.50-10.11Q527.78-8.34 527.78-5.07L527.78-5.07L527.78-5.07Q527.78-1.81 525.25 0L525.25 0L525.25 0Q522.71 1.81 519.10 1.81L519.10 1.81L519.10 1.81Q515.48 1.81 513.29 0L513.29 0L513.29 0Q511.10-1.81 511.10-5.07ZM515.74-21.24L515.74-21.24L515.74-21.24Q515.74-21.84 515.91-22.70L515.91-22.70L522.62-57.28L522.62-57.28Q525.80-58.48 529.59-58.48L529.59-58.48L529.59-58.48Q533.37-58.48 535.35-56.07L535.35-56.07L535.35-56.07Q537.33-53.66 537.33-50.10L537.33-50.10L537.33-50.10Q537.33-46.53 535.95-42.53L535.95-42.53L535.95-42.53Q534.58-38.53 532.90-34.49L532.90-34.49L532.90-34.49Q531.22-30.44 529.80-26.27L529.80-26.27L529.80-26.27Q528.38-22.10 528.30-17.72L528.30-17.72L528.30-17.72Q526.32-15.48 522.88-15.48L522.88-15.48L522.88-15.48Q519.44-15.48 517.59-17.07L517.59-17.07L517.59-17.07Q515.74-18.66 515.74-21.24Z" fill="none" stroke="#fff" stroke-width="2.1"></path></g></g></g><style>text {
  font-size: 64px;
  font-family: Arial Black;
  dominant-baseline: central;
  text-anchor: middle;
}</style></svg>